<?xml version="1.0" standalone="no"?>
<!DOCTYPE svg PUBLIC "-//W3C//DTD SVG 20010904//EN"
 "http://www.w3.org/TR/2001/REC-SVG-20010904/DTD/svg10.dtd">
<svg version="1.0" xmlns="http://www.w3.org/2000/svg"
 width="828.000000pt" height="828.000000pt" viewBox="0 0 828.000000 828.000000"
 preserveAspectRatio="xMidYMid meet">
<metadata>
Created by potrace 1.14, written by Peter Selinger 2001-2017
</metadata>
<g transform="translate(0.000000,828.000000) scale(0.100000,-0.100000)"
fill="#000000" stroke="none">
<path d="M2280 7082 c0 -5 24 -32 54 -60 30 -27 61 -63 69 -79 8 -15 25 -37
37 -48 27 -25 59 -87 94 -182 14 -40 35 -91 47 -114 25 -51 18 -61 -48 -64
-59 -2 -100 20 -151 83 -20 25 -64 73 -98 107 -63 62 -81 98 -88 172 -8 87
-31 80 -41 -11 -8 -75 10 -122 76 -196 68 -76 53 -79 -61 -10 -46 28 -90 50
-99 51 -9 0 -25 2 -36 5 -50 10 -186 5 -245 -10 -95 -24 -215 -74 -274 -114
-95 -65 -177 -166 -211 -261 -20 -58 -19 -90 5 -142 11 -24 20 -55 20 -69 0
-15 4 -30 9 -35 5 -6 19 -37 30 -70 39 -106 57 -117 224 -129 35 -3 60 2 95
20 62 31 210 84 234 84 31 0 22 -83 -12 -118 -39 -40 -68 -84 -76 -118 -4 -16
-16 -42 -28 -59 -21 -32 -76 -85 -88 -85 -15 0 -48 -70 -48 -103 0 -46 36 -89
73 -89 19 0 27 -6 27 -19 0 -10 -4 -21 -10 -24 -5 -3 -10 -13 -10 -22 0 -9 -6
-24 -13 -32 -7 -9 -22 -41 -34 -71 -11 -30 -24 -64 -29 -75 -4 -11 -8 -22 -9
-25 -1 -3 -5 -13 -9 -22 -4 -9 -8 -22 -10 -30 -1 -7 -4 -17 -8 -23 -6 -11 -35
-113 -44 -155 -3 -14 -8 -34 -11 -45 -8 -25 -12 -43 -18 -79 -2 -15 -6 -35 -9
-45 -5 -17 -14 -83 -26 -201 -11 -114 -3 -423 15 -530 8 -52 17 -108 20 -123
6 -42 53 -213 77 -282 11 -33 21 -64 22 -70 2 -5 8 -23 16 -40 7 -16 16 -39
20 -50 37 -97 147 -300 222 -410 27 -38 54 -78 61 -89 6 -10 17 -24 22 -30 6
-6 28 -33 50 -61 90 -111 190 -212 335 -339 85 -73 254 -190 382 -264 70 -40
231 -123 248 -127 3 -1 14 -5 25 -10 158 -64 329 -123 405 -139 14 -3 43 -10
65 -15 22 -6 56 -12 75 -16 19 -3 49 -8 65 -12 17 -3 40 -8 53 -9 12 -2 34 -6
50 -8 131 -22 555 -30 692 -13 355 42 670 133 970 281 100 49 184 97 188 108
2 4 8 8 13 8 6 0 37 18 70 40 33 22 62 40 65 40 2 0 13 8 23 17 36 33 50 43
60 43 5 0 11 4 13 8 2 5 26 26 53 46 28 21 68 52 90 69 62 49 275 266 329 335
27 34 53 62 57 62 5 0 9 6 9 13 0 6 13 26 28 42 16 17 41 49 57 73 15 23 32
42 37 42 5 0 7 4 3 9 -3 5 1 15 8 23 16 17 107 163 107 173 0 4 9 20 21 36 11
16 17 29 12 29 -4 0 -3 4 2 8 6 4 18 25 28 47 21 43 97 241 103 265 2 8 12 49
23 90 45 176 63 329 63 545 0 212 -22 443 -56 570 -56 209 -90 308 -157 453
-16 35 -29 67 -29 72 0 5 -3 10 -7 12 -5 2 -18 23 -31 48 -29 59 -54 101 -70
118 -7 7 -10 17 -7 22 3 4 -2 10 -10 14 -8 3 -15 11 -15 17 0 7 -7 17 -14 23
-8 6 -16 17 -18 25 -2 7 -20 32 -40 54 -21 23 -38 44 -38 49 0 4 -11 19 -25
34 -13 14 -22 31 -18 37 3 5 1 7 -5 3 -6 -3 -20 7 -32 24 -26 37 -212 224
-264 265 -20 17 -54 46 -75 65 -21 19 -50 41 -64 49 -15 8 -36 22 -46 33 -11
10 -24 18 -29 18 -5 0 -17 9 -27 20 -10 11 -23 20 -28 20 -6 0 -26 12 -46 28
-20 15 -45 32 -56 38 -11 6 -31 16 -45 24 -14 7 -32 17 -40 22 -8 4 -26 13
-40 19 -13 5 -27 13 -30 17 -10 14 -50 32 -70 32 -11 0 -20 4 -20 8 0 5 -18
15 -40 22 -22 7 -40 17 -40 22 0 5 -4 7 -8 4 -7 -4 -43 9 -92 33 -14 7 -168
56 -270 86 -57 17 -169 40 -295 60 -164 27 -566 35 -715 15 -174 -24 -233 -34
-305 -50 -27 -6 -59 -12 -70 -14 -11 -2 -27 -6 -35 -9 -8 -4 -26 -9 -40 -11
-173 -33 -383 -111 -623 -231 -104 -53 -109 -54 -140 -40 -17 7 -46 20 -64 27
-23 9 -34 21 -39 43 -4 16 -23 66 -44 110 -20 44 -42 98 -49 121 -13 41 -44
81 -148 187 -53 55 -133 108 -133 89z"/>
<path d="M1450 1679 c-100 -40 -146 -188 -99 -316 22 -57 45 -83 180 -208 83
-77 100 -105 100 -168 1 -88 -22 -118 -104 -134 -30 -5 -83 23 -112 61 -25 33
-35 63 -50 145 -7 42 -14 53 -26 45 -6 -3 -9 -49 -8 -106 l2 -100 42 -44 c23
-25 51 -44 63 -44 11 0 23 -4 27 -9 9 -15 127 -6 168 14 45 21 90 73 104 120
6 19 11 64 11 102 0 92 -29 144 -131 237 -164 148 -185 179 -173 260 10 57 30
84 70 92 50 9 102 -11 126 -50 26 -44 49 -109 52 -151 1 -19 6 -35 10 -35 4 0
11 -1 16 -2 4 -2 7 38 8 87 1 121 -21 163 -105 200 -38 17 -133 19 -171 4z"/>
<path d="M2631 1669 c-140 -63 -219 -292 -186 -539 8 -65 43 -172 59 -182 6
-4 8 -8 4 -8 -4 0 -1 -8 6 -17 8 -10 26 -32 41 -50 39 -48 114 -82 178 -79
137 6 233 120 273 326 21 108 -5 328 -47 396 -10 17 -17 33 -14 35 9 9 -81 97
-120 118 -52 27 -134 28 -194 0z m141 -50 c49 -26 90 -106 107 -204 7 -46 6
-305 -2 -350 -29 -159 -102 -236 -192 -200 -74 30 -117 159 -118 358 -1 176
14 266 59 344 31 53 99 77 146 52z"/>
<path d="M4864 1676 c-64 -29 -152 -136 -170 -206 -2 -8 -11 -42 -19 -75 -21
-81 -21 -243 -1 -328 32 -137 110 -241 197 -264 41 -10 122 -10 157 1 50 15
113 76 145 140 23 46 27 60 17 71 -19 23 -28 18 -49 -27 -86 -189 -281 -169
-331 32 -24 97 -32 256 -18 365 24 186 112 276 229 236 53 -18 119 -127 119
-197 0 -26 19 -42 29 -25 7 10 7 142 1 149 -3 2 -7 17 -9 30 -2 14 -54 67 -86
87 -39 24 -167 32 -211 11z"/>
<path d="M1790 1651 c0 -11 9 -21 23 -25 44 -11 47 -34 47 -431 1 -228 5 -375
11 -376 5 0 27 -1 49 -1 22 0 45 1 50 1 6 1 10 77 10 206 l0 205 120 0 120 0
0 -169 c0 -248 1 -250 170 -242 28 1 25 30 -4 41 -48 18 -50 31 -52 425 -1
204 -2 373 -3 378 0 4 -26 7 -56 7 l-55 0 0 -190 0 -190 -120 0 -120 0 -1 145
c-1 80 -3 150 -4 155 -1 6 -3 17 -4 25 0 8 -10 24 -21 35 -16 16 -33 20 -90
20 -62 0 -70 -2 -70 -19z"/>
<path d="M3057 1663 c-3 -5 -1 -17 4 -28 4 -11 8 -16 8 -12 1 4 10 3 21 -3 18
-10 43 -74 39 -103 -1 -6 -1 -167 0 -357 l1 -345 172 2 c95 0 181 4 190 8 17
7 28 32 51 121 15 57 9 96 -10 72 -6 -7 -15 -26 -18 -41 -4 -16 -22 -44 -40
-63 l-32 -34 -100 0 -99 0 0 173 0 172 115 5 115 5 1 28 2 27 -116 0 -116 0
-1 160 -1 160 84 0 c122 0 153 -24 167 -130 3 -27 17 -31 26 -6 3 8 3 49 0 90
-7 108 -1 105 -252 106 -114 0 -209 -3 -211 -7z"/>
<path d="M3589 1668 c-8 -27 -4 -37 17 -42 47 -12 49 -26 50 -424 1 -205 4
-375 8 -379 9 -10 456 -7 465 3 6 7 26 66 37 107 1 4 3 9 4 12 1 3 3 8 5 13 2
8 13 38 25 68 8 19 16 21 102 22 116 1 138 -3 138 -27 0 -33 46 -139 70 -159
40 -34 63 -44 106 -47 59 -3 69 17 26 55 -34 29 -65 112 -126 330 -19 69 -51
181 -71 250 -42 141 -40 134 -50 178 -4 17 -11 33 -16 33 -5 1 -15 2 -21 3
-14 1 -40 -57 -62 -139 -7 -27 -43 -144 -79 -260 -35 -115 -79 -257 -97 -315
-28 -90 -34 -102 -45 -87 -11 15 -32 17 -159 17 l-146 0 0 359 c0 376 -4 414
-43 425 -21 6 -136 9 -138 4z m748 -280 c0 -7 16 -71 37 -141 20 -70 35 -131
32 -135 -7 -11 -181 -8 -180 3 2 9 70 244 79 273 3 6 11 12 18 12 8 0 14 -6
14 -12z"/>
<path d="M5230 1650 c0 -12 9 -22 24 -26 16 -4 29 -17 35 -36 7 -20 11 -164
11 -399 0 -288 3 -369 13 -370 6 -1 88 -1 181 -1 165 1 170 1 187 24 10 12 21
39 25 58 4 19 9 40 10 45 2 6 6 25 9 43 9 47 -20 43 -36 -5 -15 -46 -40 -82
-56 -83 -7 0 -13 -4 -13 -10 0 -6 -41 -10 -102 -10 l-103 0 0 175 0 175 118 0
117 0 0 30 0 30 -115 0 c-85 0 -115 3 -116 13 0 6 -1 77 -1 157 l-1 145 79 3
c45 2 90 -2 107 -9 33 -14 66 -75 67 -121 0 -29 14 -38 22 -15 4 10 3 94 -1
150 0 9 -10 26 -21 37 -19 19 -33 20 -230 20 -203 0 -210 -1 -210 -20z"/>
<path d="M5781 1641 c-17 -23 -21 -44 -21 -104 0 -97 26 -122 32 -31 2 26 12
48 34 71 27 29 38 33 81 33 l50 0 -1 -395 c-1 -257 3 -395 9 -396 6 -1 30 -1
55 -2 l45 0 5 394 5 394 90 5 c89 5 90 6 90 30 l0 25 -227 3 -226 2 -21 -29z"/>
<path d="M6327 1663 c-2 -5 -3 -186 -3 -403 1 -394 1 -396 23 -420 19 -19 32
-23 80 -23 83 1 83 1 83 22 0 12 -9 21 -25 25 -22 6 -30 19 -41 69 -1 4 -2
171 -3 372 l-1 365 -54 0 c-30 0 -57 -3 -59 -7z"/>
<path d="M6532 1648 c2 -13 9 -24 16 -24 6 -1 16 -2 21 -3 26 -3 31 -78 31
-432 0 -412 -7 -377 75 -371 l43 4 -1 166 -2 167 75 5 c89 7 143 33 180 88 13
20 25 40 26 45 1 4 3 8 4 10 17 16 14 170 -4 222 -22 65 -43 89 -104 120 -47
23 -59 25 -207 25 l-156 0 3 -22z m302 -57 c24 -21 48 -69 41 -81 -3 -5 -1
-11 4 -14 16 -10 6 -168 -13 -208 -26 -55 -49 -71 -103 -72 l-47 -1 -1 194 c0
184 1 194 20 202 26 11 75 1 99 -20z"/>
</g>
</svg>
